# xmcd CD database file generated by OrangeCD 6.4
#
# Track frame offsets:
#	150
#	30996
#	82271
#	92224
#	210579
#	221007
#
# Disc length: 3851 seconds
#
# Revision: 0
# Processed by: cddbd v1.5.2PL0 Copyright (c) Steve Scherf et al.
# Submitted via: OrangeCD 6.4
#
DISCID=4e0f0906
DTITLE=Paul Elwood - The Callithumpian Consort - Stephen Drury - Stanley Kubric
DTITLE=k's Mountain Homw
DYEAR=2011
DGENRE=
TTITLE0=Hank Roberts, Paul Elwood - Old Joe Clark
TTITLE1=The Callithumpian Consort, Stephen Drury - In The Zone
TTITLE2=John Hartford, Matthew Combs - Cluck Old Hen
TTITLE3=The Callithumpian Consort, Ilana Davidson, Stephen Drury - Stanley Kubr
TTITLE3=ick's Mountain Home
TTITLE4=The Cuckoo's Nest
TTITLE5=The Callithumpian Consort, Min Xiao-Fen, Stephen Drury - The Golden Roa
TTITLE5=d
EXTD=
EXTT0=
EXTT1=
EXTT2=
EXTT3=
EXTT4=
EXTT5=
PLAYORDER=
